<svg id="Layer_1" data-name="Layer 1" xmlns="http://www.w3.org/2000/svg" viewBox="0 0 771.73 299.05">
  <defs>
    <style>
      .cls-1 {
        fill: #d3cca3;
      }

      .cls-2 {
        fill: #fff;
      }
    </style>
  </defs>
  <g>
    <path class="cls-1" d="M522.44,554.86c-21.38-8.64-40.77-16.76-60.4-24.25-6.49-2.48-5.22-4.32-1.28-8.09,17.62-16.87,35.06-33.93,52.57-50.91.17-.17.33-.34.5-.5,8.37-7.69,8.29-7.61,16.33.25q26.43,25.81,53,51.44c3.73,3.57,4.93,5.36-1.12,7.67-16.42,6.27-32.64,13.06-48.91,19.68-3,1.21-5.86,2.59-10.71,4.76,12.42,5,22.95,9.25,33.49,13.47,9.35,3.74,18.69,7.48,28.07,11.14,5.24,2.05,1.81,4,0,5.84q-23.7,23.05-47.48,46c-2,2-4,4-6,6-8.3,8.29-8.42,8.41-16.81.34-17.74-17.08-35.21-34.44-53.09-51.37-5-4.69-3.27-6.05,1.94-8C482,570.88,501.33,563.16,522.44,554.86Zm-23.88-54.55c.33,16.47,5.89,29.78,16.33,41,5.24,5.63,8.09,5.26,13.77-.3a54.45,54.45,0,0,0,14.07-23.91c3.74-12.56,4.77-24.33-8-33.06-3.24-2.21-5.8-5.46-8.51-8.38-2.19-2.38-3.68-3.11-6.88-.66-5.81,4.45-10.54,9.93-16,14.73C499.82,492.9,497.6,496.41,498.56,500.31Zm-.05,104.62c.45,5.06-.8,8.88,2.67,11.92,6.16,5.39,11.26,11.86,18,16.74,2.89,2.1,4.39,2.53,6.91-.15,5.32-5.63,10.88-11,16.42-16.46a8,8,0,0,0,2.75-6.16c-.23-17.93-6.1-33.4-19.55-45.72-2.08-1.9-3.34-2.13-5.88-.35C505.26,574.92,500.46,589.85,498.51,604.93Zm37.64-62.72c13.23-5.13,24.38-9.37,35.43-13.84,1.95-.79,6.49-1.55,3.5-4.9-6.23-7-12.57-14-20.06-19.68-2.44-1.86-3.85-1.55-4.25,2.18A68.39,68.39,0,0,1,536.15,542.21Zm15,65.37c9.87-5.93,16-14.43,23.53-21.33,1.84-1.67,1.83-3.14-.71-4.15l-34.82-13.81C545.63,580.83,550.23,593.12,551.11,607.58Zm-43.38-65.33c-10-12.68-13.79-25.86-15.54-41.22-8.57,9.47-18.55,15.21-25.58,25.07Zm-3.17,26.32q-16.95,6.54-33.9,13.1c-2.83,1.09-3.77,2.6-1.11,5,7.51,6.83,15,13.73,23.22,21.29C493,592.94,497.85,580.76,504.56,568.57Z" transform="translate(-136.15 -355.6)"/>
    <path class="cls-1" d="M178.21,402.26C190.39,424.21,208.6,439.75,230,452c-35.07-7-89.89-62.5-93.82-96.38C215.47,424.84,302.7,477.45,401.56,510c-41.35-7.88-79.86-23.66-117-42.56A790.61,790.61,0,0,1,178.21,402.26Z" transform="translate(-136.15 -355.6)"/>
    <path class="cls-1" d="M818.9,450c11.71-9.32,23.89-18,34.51-28.72a61,61,0,0,0,12.71-18.55c-69.31,47.87-141.64,89.28-225,107.68,99.54-32.38,187-85.47,266.76-154.76-1,10-4.54,17.68-8.67,24.92-14.72,25.81-35.88,45.25-61.43,60.06-6,3.5-11.35,8.42-18.53,9.76Z" transform="translate(-136.15 -355.6)"/>
    <path class="cls-1" d="M760.08,543.58c39.57-4,78.86-9.17,118.22-14.22-36.33,25.87-77.32,36.88-123.23,39,16.44-5.56,32-7.29,46-13.88,3.87-1.82,10.46-2.48,9.89-7.14-.38-3.13-7-1.35-10.8-1.3C786.75,546.23,773.5,543.49,760.08,543.58Z" transform="translate(-136.15 -355.6)"/>
    <path class="cls-1" d="M285.86,567.4c-43.69-1.36-84.17-12.73-120.25-38C205,534.5,244.43,539.45,284,542.74l-.15,3.19c-14.72,0-29.44-.09-44.17.09-2.47,0-6.56-1.8-7.17,1.72-.51,2.91,3.59,3.85,6,5.07,11.19,5.61,23.54,7.66,35.35,11.37C277.84,565.41,281.87,566.34,285.86,567.4Z" transform="translate(-136.15 -355.6)"/>
    <path class="cls-1" d="M788,504.74c36.67-6.4,70.85-21.78,107.59-29.29-10.51,18.34-92.85,54.33-121.75,53,9.55-3.87,18.17-7.29,26.72-10.85,6.47-2.69,12.91-5.46,19.26-8.42,1.8-.84,4.71-1.75,4.27-4.07-.55-2.87-3.58-1.53-5.4-1.38-9.08.76-18.13,1.82-27.19,2.73-1.15.11-2.32,0-3.48,0Z" transform="translate(-136.15 -355.6)"/>
    <path class="cls-1" d="M150,476.91c13.12,0,25.39,4.61,37.31,8.83,22.94,8.1,46.64,13.24,70.85,20.34-8.83,1.27-16.45-1.18-24.19-1.72-4.32-.29-11.43-2.35-12.12.5-1,4.11,5.63,5.6,9.4,7.51,10,5.09,20.65,8.76,31.21,12.56,2.33.83,5,1.34,7.28,4.6-11.79-2.77-22.7-5.07-33.47-7.91-30.47-8-58.32-21.41-82.95-41.18a30.83,30.83,0,0,1-3.28-3.56Z" transform="translate(-136.15 -355.6)"/>
    <path class="cls-1" d="M338.88,605.66c-48,5.6-94.55,3.5-135.58-26.83,34.81,3.65,69.64,6.06,104.65,5.49-16.05,2.66-32.42,2.09-48.37,6.45C284.93,601.83,312.13,603,338.88,605.66Z" transform="translate(-136.15 -355.6)"/>
    <path class="cls-1" d="M785.44,590.73c-16.51-3.63-33-4.43-49.5-6.33a705.28,705.28,0,0,0,104.89-6.5C824.3,599.75,763.94,612,703.24,605.8,732.39,603.21,759.78,601.33,785.44,590.73Z" transform="translate(-136.15 -355.6)"/>
    <path class="cls-1" d="M814.63,459.62,901.24,424c-11.72,21.59-70.53,60-100.21,65.5,10.5-6.78,20.45-10.82,28.59-17.66,5-4.21,10.49-7.85,14.92-12.73,1-1.14,3-2.18,2-4.05s-2.93-.86-4.48-.83c-5.71.09-11,2.15-16.35,3.7C822.56,458.83,819.59,460.45,814.63,459.62Z" transform="translate(-136.15 -355.6)"/>
    <path class="cls-1" d="M145.85,426.1c4.61.14,8.52,2.43,12.59,4.15,21.58,9.1,42.95,18.67,65.05,26.48,1.66.59,3.57,1,4.9,3.52-6.38-1.58-12.21-3-18-4.46a34.08,34.08,0,0,0-6.14-1.35c-2.25-.12-5.43-1.61-6.62.5-1.6,2.88,2,4.28,3.59,6,9.43,10.08,22,15.85,33.16,23.49,2.49,1.7,5,3.37,7.51,5.05l-.16.18c-18.84-6.45-36.93-14.39-53.89-25C173.34,455.59,161,444.27,149.47,432c-1.55-1.66-3.85-2.88-3.82-5.63Z" transform="translate(-136.15 -355.6)"/>
    <path class="cls-1" d="M422.52,578.87c4.6,5.52,11,6.18,15.94,9.31A53.37,53.37,0,0,1,412.39,580c-1.63-1-4.16-2.42-3.41-4.75s3.35-1.25,5-1.08c5.81.59,11.62,1.27,17.34,2.4,4.77.93,6.85,0,6.72-5.42-.31-12.43,0-24.88-.16-37.31-.05-3.87,1-5.17,4.81-3.58,11,4.56,22.05,9.14,33.17,13.49,8.85,3.46,18,6.27,27.59,11.17-21,8.4-40.56,16.77-60.57,23.9C437.12,580.87,430.11,577.36,422.52,578.87Zm65.41-24.11c-14.2-5.82-27.09-11.12-40-16.38-3.26-1.32-2.86,1.24-2.87,3-.06,8.68,0,17.35-.06,26,0,3.4,1.16,4,4.24,2.77C461.58,565.14,474,560.29,487.93,554.76Z" transform="translate(-136.15 -355.6)"/>
    <path class="cls-1" d="M539.94,554.83c15.08-6.15,28.43-11.65,41.83-17,6.3-2.54,12.73-4.74,19-7.33,4-1.62,5.32-.85,5.23,3.63-.23,12.2.15,24.41-.18,36.6-.15,5.56,1.65,7,7,5.82,6.15-1.34,12.38-2.61,18.74-2.37,1.68.06,4.29-1.11,4.81,1.38.4,1.88-1.62,3.46-3.21,4.24a108.3,108.3,0,0,1-12.91,5.46,82.16,82.16,0,0,1-14.85,3.39c4.65-3.9,11.51-4.08,16.14-9.86-1.89-.22-2.77-.53-3.57-.38-15.65,2.84-29-4.08-42.73-9.73C564.2,564.09,553,559.93,539.94,554.83Zm17.25,0c13.92,5.74,26,11.31,38.8,15.3,2.21.69,4.23,1.6,4.24-2q0-13.73,0-27.45c0-1.87-.37-3.27-2.87-2.38C584.2,543,571.31,548.35,557.19,554.84Z" transform="translate(-136.15 -355.6)"/>
    <path class="cls-1" d="M312.3,553c13.79,3.49,27.33,7.88,41.39,10.3a366.3,366.3,0,0,1,37.49,8.2l-38.06-2.7a465.57,465.57,0,0,0,63.8,24.5,264.17,264.17,0,0,1-46.61-7.58c-18.72-4.58-35.95-11.74-50.78-24.26a33.15,33.15,0,0,1-7.14-8.54Z" transform="translate(-136.15 -355.6)"/>
    <path class="cls-1" d="M731.49,552.94c-9.69,13.92-24.09,21.11-39.24,27.11-20,7.91-41.06,10.81-62.14,13.74a25.55,25.55,0,0,1-4.4-.34c22.89-7.33,44.6-14.24,65-24.61l-38.09,2.73-.1-1c19.85-4,39.68-8,59.54-12,6.65-1.32,12.57-5.14,19.46-5.61Z" transform="translate(-136.15 -355.6)"/>
    <path class="cls-1" d="M758.25,505.65c-6.27,15.18-17.83,23-29.59,30.07-19,11.47-40,18.13-61.29,24.14-.81.23-1.78-.1-4.42-.31,20.85-8.26,38.15-19.66,56.5-29.15l-.54-1.73-32.31,6.06C710.05,525.16,734.66,518.83,758.25,505.65Z" transform="translate(-136.15 -355.6)"/>
    <path class="cls-1" d="M333.5,496.63c-10.92.08-20.68-5.25-32.78-7.07,17.54,14.27,36.77,23.22,54.15,35C321,512,285.53,501.86,266.11,466.83c21,13.37,45.3,19.11,67.42,29.77Z" transform="translate(-136.15 -355.6)"/>
    <path class="cls-1" d="M711.78,496.62c10.6-6,22.05-9.89,33.44-14s21.6-10.07,32.93-17.51a36.13,36.13,0,0,1-9,15.74,106.56,106.56,0,0,1-29.72,23,351.39,351.39,0,0,1-47.66,20.39,4.25,4.25,0,0,1-2.91-.08c17.39-10.66,35.72-19.75,51.38-33l3-.92c-.14-.17-.26-.45-.45-.5a2.87,2.87,0,0,0-3.08.83c-9.58.81-18.32,5.52-28,5.94Z" transform="translate(-136.15 -355.6)"/>
    <path class="cls-1" d="M377.13,558.77c-12.06-1-23.13-5.59-34.15-10-13.87-5.62-27.92-11.1-39.22-21.36-6.59-6-13.56-11.77-17.27-20.56,22.62,12,47.27,18.3,71,27.29-11-.49-21.4-4.9-33.22-5.16,1.92,2.56,4.15,3.33,6.24,4.54q23,13.28,46.9,25Z" transform="translate(-136.15 -355.6)"/>
    <path class="cls-1" d="M380.1,637.5c-1.72,2.75-5.7,1.87-8,5.33,24.59,2.39,47.52-4.43,70.84-7.91-36.43,10.44-72.49,22.81-111,19,7-4.91,38.41-15.7,48.23-16.47Z" transform="translate(-136.15 -355.6)"/>
    <path class="cls-1" d="M712.09,653.86c-38.73,4.09-74.25-9-110.36-18.41,8-.78,15.37,2.45,23.08,3.5s15.58,3.18,23.44,3.84c8,.68,16.18.15,24.25.15.28-2.85-2.5-2-3.19-3.33C670.16,637.25,706.3,649.15,712.09,653.86Z" transform="translate(-136.15 -355.6)"/>
    <path class="cls-1" d="M313.86,620.93c-5,4-11.84,3.3-17.82,8.76,19.31,4.72,37.68,1,55.91,1.34-30.12,4.75-60.08,13.32-92.39,3.5C277.68,625.33,296.27,624.91,313.86,620.93Z" transform="translate(-136.15 -355.6)"/>
    <path class="cls-1" d="M785.94,634.21c-32.88,10.06-63.24,1.92-93.7-3,9.34-1.71,18.56,1.5,27.89.7s18.72,1.61,28.38-2.2c-5-6.42-13.52-3.86-19.63-9.25C748.22,623.58,766.37,626.91,785.94,634.21Z" transform="translate(-136.15 -355.6)"/>
    <path class="cls-1" d="M595.47,615.69c9.23-1.25,17.74-2.39,26.26-3.56,8.17-1.13,16.35-2.29,24.55-4.07-9.77-4.15-20.62-3.75-30.17-8.37h63.27C672.73,611,628,619.45,595.47,615.69Z" transform="translate(-136.15 -355.6)"/>
    <path class="cls-1" d="M364,599.77h63.35c-9.27,4.43-19.59,4.69-29.43,8a405.14,405.14,0,0,0,51,7.63C425.23,620.84,374.56,611.62,364,599.77Z" transform="translate(-136.15 -355.6)"/>
    <path class="cls-1" d="M677.08,512c-8.3,12.17-20,14.43-30.51,18.87,3.8-4.52,10.33-5.62,13.71-11-4.77-2.1-8.91,2-14.32-.05C656,515.7,665.7,514.13,677.08,512Z" transform="translate(-136.15 -355.6)"/>
    <path class="cls-1" d="M383.31,541.23c9.55,2.07,18.38,2,26.5,6.25H397.37c3.63,6,10.26,5.66,14.21,9.39C402.06,557.71,387.84,550.35,383.31,541.23Z" transform="translate(-136.15 -355.6)"/>
    <path class="cls-1" d="M633.77,557.46c3.93-3.58,9.05-4.9,12.93-9.82l-12.09-.53c7.6-4.07,15.28-3.51,22.37-5.31a1.77,1.77,0,0,1,2.25,1.14c.5,1.89-.7,3.18-1.93,4.18C650.36,552.77,642.2,555.66,633.77,557.46Z" transform="translate(-136.15 -355.6)"/>
    <path class="cls-1" d="M394.06,529.2c-10.23-2.37-19.16-6.62-25.4-17.31,10.44,2.59,19.73,4.22,29,8-5,2-9.13-1.85-13.83-.26,1.54,5.36,7.74,5.47,10.46,9.31Z" transform="translate(-136.15 -355.6)"/>
    <path class="cls-1" d="M819.25,450.36a16.64,16.64,0,0,1-2.62,2.23,1.89,1.89,0,0,1-2.51-.48c.93-2.2,3-1.89,4.78-2.13Z" transform="translate(-136.15 -355.6)"/>
    <path class="cls-1" d="M145.65,426.34l-3-.78c.13-.17.24-.45.41-.49a2.29,2.29,0,0,1,2.8,1Z" transform="translate(-136.15 -355.6)"/>
    <path class="cls-1" d="M771.83,529.73a5.8,5.8,0,0,1-1.08.38c-.12,0-.29-.25-.44-.39a6.11,6.11,0,0,1,1.05-.4C771.48,529.3,771.66,529.57,771.83,529.73Z" transform="translate(-136.15 -355.6)"/>
    <path class="cls-1" d="M273.49,529.68c-.13.15-.29.44-.4.42a6.11,6.11,0,0,1-1.06-.38,6.11,6.11,0,0,1,1.05-.4C273.2,529.3,273.38,529.57,273.49,529.68Z" transform="translate(-136.15 -355.6)"/>
    <path class="cls-1" d="M377.38,558.48l1.81.54a4,4,0,0,1-.54.7,16,16,0,0,1-1.52-1Z" transform="translate(-136.15 -355.6)"/>
    <path class="cls-1" d="M241.84,489.5l1.76.51c-.18.24-.5.69-.52.68-.49-.31-.94-.67-1.39-1Z" transform="translate(-136.15 -355.6)"/>
    <path class="cls-1" d="M380.08,637.49l1.36-1.15.54.75-1.88.41Z" transform="translate(-136.15 -355.6)"/>
    <path class="cls-1" d="M333.53,496.6l1.87.41-.55.74-1.35-1.12Z" transform="translate(-136.15 -355.6)"/>
    <path class="cls-1" d="M394.3,528.91l1.76.56c-.18.24-.49.7-.54.68-.51-.28-1-.63-1.46-1Z" transform="translate(-136.15 -355.6)"/>
    <path class="cls-1" d="M711.76,496.6l-1.33,1.14-.53-.74,1.88-.38Z" transform="translate(-136.15 -355.6)"/>
    <path class="cls-1" d="M312.39,552.93l-.62-.32.53.4Z" transform="translate(-136.15 -355.6)"/>
    <path class="cls-1" d="M731.57,553l.24-.64-.32.57Z" transform="translate(-136.15 -355.6)"/>
    <path class="cls-1" d="M150.05,476.88a2,2,0,0,1-.57-.27c-.08-.07,0-.28-.06-.43.19.25.39.49.59.73Z" transform="translate(-136.15 -355.6)"/>
    <path class="cls-2" d="M739.74,490.66a2.87,2.87,0,0,1,3.08-.83c.19.05.31.33.45.5l-3,.92C740.07,491.06,739.9,490.86,739.74,490.66Z" transform="translate(-136.15 -355.6)"/>
  </g>
</svg>
